<svg width="195" height="195" viewBox="0 0 195 195" fill="none" xmlns="http://www.w3.org/2000/svg">
<path d="M179.283 108.527C194.168 136.392 193.133 165.979 176.975 174.611C161.604 182.818 138.092 169.114 123.019 143.782C114.977 145.158 106.21 145.919 97.0359 145.919C87.8554 145.919 79.0889 145.158 71.0468 143.782C55.9794 169.114 32.462 182.818 17.0902 174.611C0.933028 165.979 -0.101906 136.392 14.7829 108.527C29.6677 80.6573 54.8349 65.0663 70.9981 73.6989C75.5579 76.1401 78.9123 80.2494 81.0492 85.5154C86.1873 85.004 91.5385 84.73 97.0359 84.73C102.533 84.73 107.884 85.004 113.023 85.5154C115.153 80.2494 118.508 76.1401 123.074 73.6989C139.231 65.0663 164.398 80.6573 179.283 108.527ZM168.185 113.751C168.185 109.575 164.794 106.19 160.623 106.19C156.447 106.19 153.062 109.575 153.062 113.751C153.062 117.927 156.447 121.312 160.623 121.312C164.794 121.312 168.185 117.927 168.185 113.751ZM137.745 113.751C137.745 109.575 134.354 106.19 130.184 106.19C126.008 106.19 122.623 109.575 122.623 113.751C122.623 117.927 126.008 121.312 130.184 121.312C134.354 121.312 137.745 117.927 137.745 113.751ZM69.3544 120.027V107.085H55.675V93.3991H42.7261V107.085H29.0467V120.027H42.7261V133.713H55.675V120.027H69.3544Z" fill="#FFB578"/>
<path d="M160.623 106.19C164.794 106.19 168.185 109.575 168.185 113.751C168.185 117.927 164.794 121.312 160.623 121.312C156.447 121.312 153.062 117.927 153.062 113.751C153.062 109.575 156.447 106.19 160.623 106.19Z" fill="#5FCEFF"/>
<path d="M130.184 106.19C134.354 106.19 137.745 109.575 137.745 113.751C137.745 117.927 134.354 121.312 130.184 121.312C126.008 121.312 122.623 117.927 122.623 113.751C122.623 109.575 126.008 106.19 130.184 106.19Z" fill="#FF4893"/>
<path d="M69.3544 107.085V120.027H55.675V133.713H42.7261V120.027H29.0467V107.085H42.7261V93.3992H55.675V107.085H69.3544Z" fill="#8B87C1"/>
<path d="M167.108 181.251H167.106C151.491 181.249 133.575 168.46 120.881 148.442C113.215 149.596 105.208 150.18 97.0365 150.18C88.8611 150.18 80.8526 149.596 73.1861 148.442C60.496 168.461 42.5801 181.251 26.9605 181.251C22.6594 181.251 18.6633 180.281 15.0837 178.37C5.87152 173.448 0.528214 162.993 0.0369247 148.93C-0.425143 135.709 3.47656 120.648 11.0237 106.52C23.6298 82.9165 43.7635 67.0576 61.1237 67.0576C65.4266 67.0576 69.4244 68.0274 73.0053 69.9396C77.4458 72.3175 81.0827 76.1084 83.6499 81.0031C92.5586 80.2935 101.51 80.2935 110.418 81.0031C112.983 76.1078 116.621 72.3169 121.063 69.9414C124.645 68.028 128.642 67.0582 132.944 67.0582C150.303 67.0582 170.435 82.9165 183.041 106.52C190.588 120.648 194.49 135.71 194.028 148.931C193.537 162.994 188.194 173.449 178.983 178.37C175.404 180.281 171.408 181.251 167.108 181.251ZM123.021 139.521C123.759 139.521 124.485 139.713 125.127 140.078C125.768 140.443 126.304 140.969 126.682 141.603C137.759 160.219 154.005 172.726 167.107 172.728H167.108C169.993 172.728 172.638 172.096 174.969 170.852C188.79 163.467 189.045 135.845 175.525 110.535C164.533 89.9546 147.024 75.5806 132.946 75.5806C130.059 75.5806 127.414 76.2119 125.083 77.4575C121.525 79.36 118.797 82.6084 116.974 87.1141C116.629 87.9681 116.016 88.6872 115.228 89.1636C114.44 89.64 113.518 89.8479 112.601 89.7562C102.406 88.7413 91.6652 88.7413 81.4717 89.7562C80.5561 89.8471 79.6357 89.6393 78.8479 89.1638C78.0602 88.6884 77.4474 87.9708 77.1012 87.1183C75.2724 82.6103 72.542 79.3593 68.9873 77.4563C66.6587 76.2131 64.0123 75.5812 61.1249 75.5812C47.0449 75.5812 29.5344 89.9546 18.5422 110.536C5.02227 135.846 5.27674 163.468 19.0992 170.853C21.429 172.097 24.0748 172.728 26.9611 172.728C40.067 172.728 56.3124 160.22 67.3856 141.605C67.8252 140.864 68.4794 140.274 69.2617 139.913C70.044 139.552 70.9174 139.437 71.7664 139.583C79.8182 140.96 88.3199 141.658 97.0371 141.658C105.75 141.658 114.25 140.96 122.302 139.583C122.541 139.54 122.782 139.521 123.021 139.521Z" fill="#4F46A3"/>
<path d="M55.6756 137.974H42.7267C42.1671 137.974 41.613 137.864 41.0959 137.65C40.5789 137.436 40.1091 137.122 39.7134 136.726C39.3177 136.33 39.0038 135.861 38.7896 135.344C38.5755 134.827 38.4652 134.272 38.4652 133.713V124.289H29.0473C27.9171 124.289 26.8332 123.841 26.034 123.041C25.2348 122.242 24.7858 121.158 24.7858 120.028V107.085C24.7858 106.525 24.8961 105.971 25.1102 105.454C25.3244 104.937 25.6383 104.467 26.034 104.071C26.4297 103.676 26.8995 103.362 27.4165 103.147C27.9335 102.933 28.4877 102.823 29.0473 102.823H38.4652V93.3997C38.4652 92.2695 38.9142 91.1856 39.7134 90.3864C40.5126 89.5872 41.5965 89.1382 42.7267 89.1382H55.6756C56.8058 89.1382 57.8897 89.5872 58.6889 90.3864C59.4881 91.1856 59.9371 92.2695 59.9371 93.3997V102.823H69.355C70.4852 102.823 71.5691 103.272 72.3683 104.071C73.1675 104.87 73.6165 105.954 73.6165 107.085V120.028C73.6165 120.588 73.5063 121.142 73.2921 121.659C73.0779 122.176 72.764 122.646 72.3683 123.041C71.9726 123.437 71.5028 123.751 70.9858 123.965C70.4688 124.179 69.9146 124.289 69.355 124.289H59.9371V133.713C59.9371 134.272 59.8269 134.827 59.6127 135.344C59.3985 135.861 59.0846 136.33 58.6889 136.726C58.2932 137.122 57.8234 137.436 57.3064 137.65C56.7894 137.864 56.2352 137.974 55.6756 137.974ZM46.9876 129.451H51.4135V120.028C51.4135 118.898 51.8625 117.814 52.6616 117.015C53.4608 116.215 54.5448 115.766 55.675 115.766H65.0929V111.346H55.675C54.5448 111.346 53.4608 110.897 52.6616 110.098C51.8625 109.299 51.4135 108.215 51.4135 107.085V97.6612H46.9876V107.085C46.9876 108.215 46.5386 109.299 45.7395 110.098C44.9403 110.897 43.8563 111.346 42.7261 111.346H33.3082V115.766H42.7261C43.8563 115.766 44.9403 116.215 45.7395 117.015C46.5386 117.814 46.9876 118.898 46.9876 120.028V129.451ZM130.184 125.573C123.665 125.573 118.362 120.27 118.362 113.751C118.362 107.232 123.665 101.928 130.184 101.928C136.703 101.928 142.007 107.232 142.007 113.751C142.007 120.27 136.703 125.573 130.184 125.573ZM130.184 110.451C128.365 110.451 126.885 111.932 126.885 113.751C126.885 115.57 128.365 117.05 130.184 117.05C132.003 117.05 133.484 115.57 133.484 113.751C133.484 111.932 132.003 110.451 130.184 110.451ZM160.623 125.573C154.105 125.573 148.801 120.27 148.801 113.751C148.801 107.232 154.105 101.928 160.623 101.928C167.142 101.928 172.446 107.232 172.446 113.751C172.446 120.27 167.142 125.573 160.623 125.573ZM160.623 110.451C158.804 110.451 157.324 111.932 157.324 113.751C157.324 115.57 158.804 117.05 160.623 117.05C162.443 117.05 163.923 115.57 163.923 113.751C163.923 111.932 162.443 110.451 160.623 110.451ZM97.0359 84.7544C95.9056 84.7544 94.8217 84.3054 94.0225 83.5062C93.2233 82.707 92.7743 81.6231 92.7743 80.4929C92.7743 62.3797 107.511 47.6428 125.624 47.6428H157.201C158.332 47.6428 159.416 48.0918 160.215 48.891C161.014 49.6902 161.463 50.7741 161.463 51.9043C161.463 53.0345 161.014 54.1185 160.215 54.9177C159.416 55.7168 158.332 56.1658 157.201 56.1658H125.624C112.21 56.1658 101.297 67.0789 101.297 80.4929C101.297 81.0525 101.187 81.6067 100.973 82.1237C100.759 82.6408 100.445 83.1106 100.049 83.5063C99.6535 83.9021 99.1837 84.216 98.6667 84.4301C98.1496 84.6443 97.5955 84.7544 97.0359 84.7544Z" fill="#4F46A3"/>
<path d="M155.985 56.1173C154.854 56.1173 153.77 55.6684 152.971 54.8692C152.172 54.07 151.723 52.9861 151.723 51.8558C151.723 50.7256 152.172 49.6417 152.971 48.8425C153.77 48.0433 154.854 47.5943 155.985 47.5943C162.418 47.5943 167.543 46.224 170.805 43.6311C173.479 41.5101 174.833 38.6653 174.833 35.1751C174.833 27.3985 167.786 22.7559 155.985 22.7559H81.7919C80.6617 22.7559 79.5777 22.3069 78.7786 21.5077C77.9794 20.7086 77.5304 19.6246 77.5304 18.4944C77.5304 17.3642 77.9794 16.2803 78.7786 15.4811C79.5777 14.6819 80.6617 14.2329 81.7919 14.2329H155.985C176.188 14.2329 183.356 25.5143 183.356 35.1751C183.356 41.2222 180.781 46.5953 176.106 50.3059C171.255 54.1613 164.484 56.1173 155.985 56.1173Z" fill="#4F46A3"/>
</svg>
