<svg width="195" height="195" viewBox="0 0 195 195" fill="none" xmlns="http://www.w3.org/2000/svg">
<g clip-path="url(#clip0_46_123)">
<path d="M91.1876 120.91L17.0975 195H165.277L91.1876 120.91Z" fill="#167EE6"/>
<path d="M164.853 195L91.1404 120.863V195H164.853Z" fill="#2860CC"/>
<path d="M182.283 19.0761C182.283 15.5151 179.485 12.7173 175.924 12.7173H17.0975L182.282 177.902V19.0761H182.283Z" fill="#B8C8D9"/>
<path d="M6.35883 12.7173C2.79779 12.7173 0 15.5151 0 19.0761V178.326L165.609 12.7173H6.35883Z" fill="#12B347"/>
<path d="M180.438 14.5614C179.294 13.4169 177.704 12.7173 175.924 12.7173H91.1404V103.86L180.438 14.5614Z" fill="#0F993E"/>
<path d="M100.128 94.8716L182.283 177.026V188.641C182.283 192.202 179.485 195 175.924 195H164.309L82.1544 112.845L100.128 94.8716Z" fill="#E6F3FF"/>
<path d="M182.283 19.0761V30.7757L17.9312 195H6.35883C2.79741 195 0 192.202 0 188.641V177.068L78.382 98.6868L164.224 12.7173H175.924C179.485 12.7173 182.283 15.5147 182.283 19.0761Z" fill="#FFD500"/>
<path d="M182.283 19.0761V30.7761L91.1286 121.886V85.9105L164.224 12.7173H175.924C179.485 12.7173 182.283 15.5151 182.283 19.0761Z" fill="#FFAA00"/>
<path d="M55.1088 89.0217C41.0875 89.0217 29.6739 77.6081 29.6739 63.5868C29.6739 49.5654 41.0875 38.1519 55.1088 38.1519C58.5487 38.1519 61.8896 38.8347 65.0195 40.1639C68.2485 41.5426 69.7513 45.2804 68.3726 48.5101C66.9939 51.7268 63.2684 53.2419 60.0265 51.8632C58.4867 51.2047 56.8227 50.8695 55.1088 50.8695C48.0919 50.8695 42.3915 56.5698 42.3915 63.5868C42.3915 70.6037 48.0919 76.3041 55.1088 76.3041C59.8033 76.3041 63.9139 73.7458 66.1248 69.9452H61.4676C57.9531 69.9452 55.1088 67.1014 55.1088 63.5864C55.1088 60.0715 57.9527 57.2276 61.4676 57.2276H74.1849C77.6995 57.2276 80.5438 60.0715 80.5438 63.5864C80.5434 77.6085 69.1302 89.0217 55.1088 89.0217Z" fill="white"/>
<path d="M150.489 0C125.948 0 105.978 19.97 105.978 44.511C105.978 52.335 108.04 60.0227 111.927 66.7414L144.987 123.995C146.117 125.957 148.216 127.174 150.489 127.174C152.762 127.174 154.86 125.957 155.99 123.995L189.051 66.7414C192.938 60.0227 195 52.335 195 44.511C195 19.97 175.03 0 150.489 0Z" fill="#FF4B26"/>
<path d="M155.991 123.994L189.051 66.741C192.938 60.0227 195 52.335 195 44.511C195 19.97 175.03 0 150.489 0V25.4349C161.008 25.4349 169.565 33.9921 169.565 44.511C169.565 55.03 161.008 63.5871 150.489 63.5871V127.174C152.762 127.174 154.861 125.957 155.991 123.994Z" fill="#D93F21"/>
<path d="M150.489 63.587C139.97 63.587 131.413 55.0299 131.413 44.5109C131.413 33.992 139.97 25.4348 150.489 25.4348C161.008 25.4348 169.565 33.992 169.565 44.5109C169.565 55.0299 161.008 63.587 150.489 63.587Z" fill="#BF381D"/>
</g>
<defs>
<clipPath id="clip0_46_123">
<rect width="195" height="195" fill="white"/>
</clipPath>
</defs>
</svg>
