<svg width="195" height="195" viewBox="0 0 195 195" fill="none" xmlns="http://www.w3.org/2000/svg">
<g clip-path="url(#clip0_51_228)">
<path d="M46.9375 162.423V182.553L47.2449 186.088C48.0132 189.622 51.2401 192.695 55.0817 192.695H141.287C145.129 192.695 148.356 189.622 149.124 186.088V61.0048C149.124 60.3901 148.971 59.3145 148.971 59.3145H47.3985C47.2449 59.3145 46.9375 59.6218 46.9375 60.2364V88.2033V162.423Z" fill="#FF7043"/>
<path d="M146.973 54.5508L124.538 33.0378H71.6775L49.3962 54.5508C49.3962 54.5508 46.7839 56.3948 46.1692 59.6218H148.356C147.588 56.5485 146.973 54.7045 146.973 54.5508Z" fill="#FFCC80"/>
<path d="M147.588 185.78C147.741 185.319 147.741 184.704 147.741 184.243V182.707L147.588 185.78Z" fill="#2E7D32"/>
<path d="M112.399 90.5083H46.9375V160.272H112.399V90.5083Z" fill="#B2DFDB"/>
<path d="M128.994 6.7613C128.994 4.149 126.843 2.15137 124.384 2.15137H70.1408C67.5286 2.15137 65.5309 4.30267 65.5309 6.7613V26.8913C65.5309 29.5036 67.6822 31.5012 70.1408 31.5012H124.384C126.997 31.5012 128.994 29.3499 128.994 26.8913V6.7613Z" fill="#BF360C"/>
<path d="M123.462 33.9598H70.7555C66.4529 33.9598 63.0723 30.4255 63.0723 26.2766V7.68322C63.0723 3.38061 66.6065 0 70.7555 0H123.462C127.765 0 131.146 3.53428 131.146 7.68322V26.2766C131.146 30.4255 127.765 33.9598 123.462 33.9598ZM70.7555 2.91962C68.1432 2.91962 66.1456 5.07092 66.1456 7.52955V26.1229C66.1456 28.7352 68.2969 30.7329 70.7555 30.7329H123.462C126.075 30.7329 128.072 28.5816 128.072 26.1229V7.52955C128.072 4.91726 125.921 2.91962 123.462 2.91962H70.7555Z" fill="black"/>
<path d="M124.231 185.78H46.7839C45.8619 185.78 45.2472 185.165 45.2472 184.243C45.2472 183.321 45.8619 182.707 46.7839 182.707H124.231C125.153 182.707 125.767 183.321 125.767 184.243C125.767 185.165 124.999 185.78 124.231 185.78Z" fill="black"/>
<path d="M147.434 185.78H138.214C137.292 185.78 136.677 185.165 136.677 184.243C136.677 183.321 137.292 182.707 138.214 182.707H147.434C148.356 182.707 148.971 183.321 148.971 184.243C148.971 185.165 148.356 185.78 147.434 185.78Z" fill="black"/>
<path d="M112.552 162.423H46.7839C45.8619 162.423 45.2472 161.809 45.2472 160.887C45.2472 159.965 45.8619 159.35 46.7839 159.35H111.016V91.2767H46.7839C45.8619 91.2767 45.2472 90.662 45.2472 89.74C45.2472 88.818 45.8619 88.2034 46.7839 88.2034H112.552C113.474 88.2034 114.089 88.818 114.089 89.74V161.04C114.089 161.809 113.474 162.423 112.552 162.423Z" fill="black"/>
<path d="M140.058 195H56.4647C50.4718 195 44.4789 189.314 44.4789 183.322V61.0048C44.4789 55.6265 48.4742 52.3996 48.6278 52.2459L70.1409 31.1939C70.7555 30.5792 71.6775 30.5792 72.2922 31.1939C72.9068 31.8086 72.9068 32.7305 72.2922 33.3452L50.6255 54.3972C50.4718 54.5509 47.3985 57.0095 47.3985 60.8511V183.168C47.3985 187.471 51.8548 191.773 56.3111 191.773H139.904C144.053 191.773 147.588 187.932 147.588 183.629L147.434 61.3121C147.434 57.4705 144.822 54.5509 144.668 54.5509L123.923 33.8062C123.309 33.1915 123.309 32.2696 123.923 31.6549C124.538 31.0402 125.46 31.0402 126.075 31.6549L146.819 52.3996C146.973 52.5532 150.354 56.2412 150.354 61.3121L150.507 183.629C150.815 189.929 145.897 195 140.058 195Z" fill="black"/>
<path d="M147.434 60.2364H59.2307C58.3087 60.2364 57.694 59.6217 57.694 58.6997C57.694 57.7777 58.3087 57.1631 59.2307 57.1631H147.588C148.51 57.1631 149.124 57.7777 149.124 58.6997C149.124 59.6217 148.356 60.2364 147.434 60.2364Z" fill="black"/>
</g>
<defs>
<clipPath id="clip0_51_228">
<rect width="195" height="195" fill="white"/>
</clipPath>
</defs>
</svg>
