<svg width="195" height="195" viewBox="0 0 195 195" fill="none" xmlns="http://www.w3.org/2000/svg">
<path d="M97.5 195C138.955 195 172.56 191.628 172.56 187.468C172.56 183.308 138.955 179.935 97.5 179.935C56.0455 179.935 22.44 183.308 22.44 187.468C22.44 191.628 56.0455 195 97.5 195Z" fill="#DBDBDB"/>
<path d="M97.5 171.15C109.916 171.15 119.981 162.677 119.981 152.225C119.981 141.773 109.916 133.3 97.5 133.3C85.084 133.3 75.0188 141.773 75.0188 152.225C75.0188 162.677 85.084 171.15 97.5 171.15Z" fill="#E5E5E5"/>
<path d="M119.981 152.225C119.981 162.679 109.918 171.15 97.5 171.15C87.3346 171.15 78.7479 165.473 75.9667 157.676C80.0473 161.169 85.7216 163.334 92.0017 163.334C104.42 163.334 114.483 154.862 114.483 144.408C114.483 142.512 114.15 140.685 113.535 138.957C117.518 142.372 119.981 147.058 119.981 152.225Z" fill="#D1D1D1"/>
<path d="M195 135.995V142.804C195 146.416 191.52 149.345 187.23 149.345H7.77045C3.4796 149.345 0 146.416 0 142.804V135.995C0 133.366 1.87203 130.988 4.75016 129.967C9.97453 128.107 14.2853 125.026 17.2907 121.212C20.2965 117.398 21.9921 112.852 21.9921 108.08V75.24C21.9921 43.6349 49.556 16.9091 85.4427 11.9391C85.3353 11.4001 85.2816 10.849 85.2816 10.2853C85.2816 4.60348 90.7506 0 97.4995 0C104.248 0 109.717 4.6039 109.717 10.2853C109.717 10.8406 109.664 11.3838 109.561 11.9144C125.581 14.0783 139.915 20.4845 150.892 29.7249C164.557 41.228 173.007 57.1211 173.007 74.6726V108.08C173.007 117.629 179.8 126.252 190.249 129.967C191.69 130.478 192.873 131.325 193.704 132.378C194.531 133.427 195 134.682 195 135.995Z" fill="#F2BE2A"/>
<path d="M195 135.995V142.804C195 146.416 191.52 149.345 187.23 149.345H11.9102L80.6344 142.166C120.856 137.966 149.984 107.714 146.373 73.7306C143.67 48.2966 130.035 29.0834 100.799 12.7543C104.357 4.36538 97.0362 1.64999 92.7891 0.790053C94.2356 0.284135 95.8288 0 97.5005 0C104.25 0 109.718 4.6039 109.718 10.2853C109.718 10.8406 109.665 11.3838 109.562 11.9144C125.582 14.0783 139.916 20.4845 150.893 29.7249C164.558 41.228 173.008 57.1211 173.008 74.6726V108.08C173.008 117.629 179.801 126.252 190.25 129.967C191.691 130.478 192.874 131.325 193.705 132.378C194.531 133.427 195 134.682 195 135.995Z" fill="#E2AD27"/>
<path d="M80.4827 21.1618C70.0658 23.2746 40.6671 32.4531 31.7723 69.553C31.5714 70.3903 32.33 71.1753 33.345 71.1753H33.8521C34.4426 71.1753 34.9854 70.9033 35.2643 70.4648C38.3313 65.6416 57.0387 37.7274 82.5596 32.1631C84.0627 31.8355 85.0688 30.6474 84.954 29.3439L84.4485 23.5972C84.3018 21.9288 82.4154 20.7697 80.4827 21.1618Z" fill="#FFD671"/>
</svg>
